<svg xmlns="http://www.w3.org/2000/svg" width="159" height="25" fill="none"><path fill="#000" d="M11.6 24.747C3.867 24.72.213 22.32.4 16.507h6.64c.08 1.52 1.36 2.453 4.56 2.48 2.827.026 4.133-.774 4.133-1.814 0-.72-.4-1.466-2.586-1.786l-2.88-.454C6.027 14.24.933 13.733.933 8c0-4.427 3.6-7.147 10.72-7.147C18.08.853 22.56 2.64 22.427 9.04H15.84c-.267-1.493-1.52-2.427-4.347-2.427-2.453 0-3.466.747-3.466 1.76 0 .64.4 1.414 2.106 1.68l2.374.4c4.453.747 10.56.88 10.56 7.014 0 4.88-3.787 7.306-11.467 7.28M40.545 1.6h7.386V24h-7.386v-8.107H31.85V24h-7.386V1.6h7.386v8.107h8.694zm21.557 23.147c-7.707 0-12.694-4.774-12.694-11.947S54.395.853 62.102.853c7.706 0 12.693 4.774 12.693 11.947s-4.987 11.947-12.693 11.947m0-6.374c2.933 0 5.36-2.026 5.36-5.573s-2.427-5.573-5.36-5.573-5.36 2.026-5.36 5.573 2.426 5.573 5.36 5.573M76.277 24V1.6h12.72c6.107 0 9.733 2.72 9.733 8.747s-3.626 8.746-9.706 8.746h-5.36V24zm7.387-11.04h4.693c1.787 0 2.933-.88 2.933-2.613s-1.146-2.614-2.906-2.614h-4.72zm18.762 11.467c-2 0-3.68-1.654-3.68-3.627s1.68-3.627 3.68-3.627 3.68 1.654 3.68 3.627-1.68 3.627-3.68 3.627m17.725.32c-7.546 0-12.586-4.774-12.586-11.947S112.605.853 120.151.853c5.467 0 11.067 2.4 11.814 9.974h-7.04c-.614-2.454-2.347-3.6-4.774-3.6-2.933 0-5.253 2.186-5.253 5.573s2.32 5.573 5.253 5.573c2.427 0 4.16-1.146 4.774-3.653h7.04c-.747 7.627-6.294 10.027-11.814 10.027m25.857 0c-7.707 0-12.693-4.774-12.693-11.947S138.301.853 146.008.853s12.693 4.774 12.693 11.947-4.986 11.947-12.693 11.947m0-6.374c2.933 0 5.36-2.026 5.36-5.573s-2.427-5.573-5.36-5.573-5.36 2.026-5.36 5.573 2.427 5.573 5.36 5.573"/></svg>