<?xml version="1.0" encoding="utf-8"?>
<svg viewBox="-0.7 0 25 25" xmlns="http://www.w3.org/2000/svg">
  <path d="M 11.6 24.747 C 3.867 24.72 0.213 22.32 0.4 16.507 L 7.04 16.507 C 7.12 18.027 8.4 18.96 11.6 18.987 C 14.427 19.013 15.733 18.213 15.733 17.173 C 15.733 16.453 15.333 15.707 13.147 15.387 L 10.267 14.933 C 6.027 14.24 0.933 13.733 0.933 8 C 0.933 3.573 4.533 0.853 11.653 0.853 C 18.08 0.853 22.56 2.64 22.427 9.04 L 15.84 9.04 C 15.573 7.547 14.32 6.613 11.493 6.613 C 9.04 6.613 8.027 7.36 8.027 8.373 C 8.027 9.013 8.427 9.787 10.133 10.053 L 12.507 10.453 C 16.96 11.2 23.067 11.333 23.067 17.467 C 23.067 22.347 19.28 24.773 11.6 24.747 Z" fill="black" transform="matrix(0.9999999999999999, 0, 0, 0.9999999999999999, -8.881784197001252e-16, 0)"/>
</svg>
